# xmcd CD database file
#
# Track frame offsets:
#	183
#	54033
#	81808
#	124608
#	143808
#	176433
#	187720
#
# Disc length: 2944 seconds
#
# Revision: 1
# Processed by: cddbd v1.5.1PL0 Copyright (c) Steve Scherf et al.
# Submitted via: CDex 1.51
#
DISCID=4a0b7e07
DTITLE=Carlo Mombelli and Charlie Mariano - Happy Sad
DYEAR=1990
DGENRE=Jazz
TTITLE0=Deep Impressions
TTITLE1=Happy Sad
TTITLE2=I drank my coffee and dreamt
TTITLE3=My Friend and I
TTITLE4=Somewhere, out there
TTITLE5=Zambesi
TTITLE6=Remember Lucia
EXTD=YEAR: 1990
EXTT0=
EXTT1=
EXTT2=
EXTT3=
EXTT4=
EXTT5=
EXTT6=
PLAYORDER=
